<?xml version="1.0" encoding="utf-8"?>
<!-- Generator: Adobe Illustrator 23.0.3, SVG Export Plug-In . SVG Version: 6.00 Build 0)  -->
<svg version="1.1" id="Layer_1" xmlns="http://www.w3.org/2000/svg" xmlns:xlink="http://www.w3.org/1999/xlink" x="0px" y="0px"
	 viewBox="0 0 1755 1755" style="enable-background:new 0 0 1755 1755;" xml:space="preserve">
<style type="text/css">
	.st0{stroke:#231F20;stroke-miterlimit:10;}
</style>
<path class="st0" d="M1009.1,291c-40.7-45.5-88-68.2-141.4-68.2c-60.5,0-106.8,21.7-139.2,65.2c-32.2,43.2-48.4,95.6-48.4,157.3
	c0,52.4,8.9,105.8,26.6,160.3c17.7,54.5,46.5,103,87.1,145.8c40.3,42.9,87.2,64.3,140.6,64.3c59.5,0,106-19.9,139.2-59.8
	c33.2-39.8,49.9-90,49.9-150.5c0-51.5-8.9-105.5-26.4-161.9C1079.3,387.4,1050.1,336.3,1009.1,291L1009.1,291z M1601,255.6v578.8
	c0,26.9-22,48.7-48.7,48.7h-18c-26.9,0-48.7-22-48.7-48.7V255.6c0-23.8-3.4-43.7,29.8-47.8v-77l-255.9,209.8c3,5.5,5.8,9,8.4,13.6
	c22.4,39.8,33.9,89.3,33.9,149.8c0,46.3-7.7,88.1-23.5,124.8c-15.6,36.7-34.5,66.9-56.7,90c-22.1,23.2-44.3,44.4-66.6,63.6
	c-22.1,19.2-41.2,39.1-56.7,59.8c-15.6,20.7-23.5,42.1-23.5,64.2s10.2,44.7,30.3,67.4s44.9,44.9,74.1,66.6
	c29.4,21.7,58.6,45.6,87.8,71.9c29.4,26.1,53.9,59.8,73.9,100.5c20.2,40.9,30.4,86,30.4,135.6c0,65.4-16.7,124.4-49.9,176.9
	c-33.4,52.2-76.7,94-130,124.7c-53.4,30.8-110.7,54-171.6,69.7c-61.1,15.5-121.7,23.3-182.4,23.3c-38.2,0-76.7-3-115.5-9
	c-39-6.1-77.9-16.7-117.2-31.7c-39.4-15.2-74.2-33.8-104.5-56.1c-30.3-22.1-54.6-50.6-73.3-85.4s-28-73.8-28-117.2
	c0-51.5,14.3-99.2,43.1-143.7c28.8-44.1,66.9-81.2,114.2-110.4c82.6-51.4,212.4-83.2,388.7-95.2c-40.3-50.5-60.5-97.8-60.5-142.3
	c0-25.2,6.6-52.4,19.6-81.6c-21.1,3-42.8,4.6-64.9,4.6c-94.7,0-174.9-30.8-239.8-92.8S502,642.7,502,549c0-9.7,0.3-18.4,1-28H117.9
	L698.7,16h962l-88.8,69.4v122.5C1604.5,212.1,1601,232,1601,255.6L1601,255.6z M1014.5,1154.8c-11.1-2.1-26.7-3.1-46.8-3.1
	c-43.4,0-86,3.8-127.9,11.5c-41.9,7.4-83.2,20.1-124,37.8c-40.9,17.7-73.9,43.5-99,77.9c-25.2,34.2-37.9,74.5-37.9,121
	c0,44.3,11.1,83.7,33.4,118.1c22.1,34.1,51.4,60.9,87.7,80c36.3,19.2,74.4,33.6,114.2,43.2c39.8,9.4,80.4,14.3,121.7,14.3
	c81.8,0,152-18.4,211-55.2c58.9-36.7,88.4-93.6,88.4-170.3c0-16.1-2.2-32-6.6-47.5c-4.6-15.6-9.1-29.1-13.7-40.3
	c-4.6-10.9-13.1-24.1-25.7-39.3c-12.5-15.2-22.1-26.4-28.6-33.9c-6.6-7.7-19-18.7-37.2-33.4c-18-14.6-29.5-23.8-34.7-27.2
	c-5-3.5-18.2-13.1-39.4-28.8C1028.1,1164.1,1016.6,1155.7,1014.5,1154.8L1014.5,1154.8z"/>
</svg>
