<?xml version="1.0" encoding="utf-8"?>
<!-- Generator: Adobe Illustrator 22.1.0, SVG Export Plug-In . SVG Version: 6.00 Build 0)  -->
<svg version="1.1" id="Layer_1" xmlns="http://www.w3.org/2000/svg" xmlns:xlink="http://www.w3.org/1999/xlink" x="0px" y="0px"
	 viewBox="0 0 24 24" style="enable-background:new 0 0 24 24;" xml:space="preserve">
<title  id="simpleicons-tails-icon">Tails icon</title>
<path d="M12.8,21.4h-4c-0.1,0-0.2-0.1-0.1-0.2l1.7-2c0.1-0.1,0.2-0.2,0.4-0.2h0.5l0.5-0.6c0.6-0.7,1.7-1.2,2.5-1.2
	c0.8,0,1,0.5,0.5,1.2L14.3,19h0.5c0.1,0,0.2,0.1,0.1,0.2l-1.7,2C13.1,21.3,13,21.4,12.8,21.4L12.8,21.4z M14.1,18.4
	c0.3-0.4,0.2-0.6-0.3-0.6s-1,0.3-1.3,0.6L12,19h1.6C13.6,19,14.1,18.4,14.1,18.4z"/>
<path d="M4.1,21.2L4.1,21.2C4.1,21.2,4.1,21.2,4.1,21.2L4.1,21.2C4.1,21.3,4.1,21.3,4.1,21.2l0.1,0.1c0,0,0,0,0,0l0,0c0,0,0,0,0.1,0
	h0l0,0l0.2,0l4.3-5.2l12.9,0l0.1-0.1l0,0l0,0c0,0,0,0,0,0l0,0c0,0,0,0,0,0l0,0c0,0,0,0,0,0v0l0,0c0,0,0,0,0,0l0,0c0,0,0,0,0,0
	c0,0,0,0,0,0l0,0c0,0,0,0,0,0c0,0,0,0,0,0L20,12.1l-0.6,0.7l-10.1,0l4.3-5.2l5.2,0l4.7,0l0,0c0,0,0,0,0,0c0,0,0,0,0,0l0,0
	c0,0,0,0,0,0l0,0l0,0c0,0,0,0,0,0l0,0c0,0,0,0,0.1-0.1c0,0,0,0,0,0c0,0,0,0,0,0c0,0,0,0,0-0.1l0,0l0,0l0,0c0,0,0,0,0,0c0,0,0,0,0,0
	c0,0,0,0,0,0c0,0,0,0,0,0l0,0l-2.2-4.3l0,0c0,0,0-0.1-0.1-0.1c0,0,0,0-0.1-0.1c0,0,0,0-0.1,0c0,0,0,0-0.1,0c0,0,0,0,0,0l-10.1,0h0
	l0,0c0,0,0,0,0,0l0,0l0,0c0,0,0,0-0.1,0h0v0c0,0,0,0-0.1,0l0,0l0,0c0,0,0,0,0,0l0,0c0,0,0,0,0,0c0,0,0,0,0,0L7.2,7.5L4.6,7.4h0l0,0
	l0,0c0,0,0,0,0,0c0,0,0,0,0,0l0,0l0,0c0,0,0,0,0,0h0c0,0,0,0,0,0l0,0l0,0c0,0,0,0,0,0l0,0l0,0l0,0l-4.2,5.3C0,12.9,0,13.1,0,13.2
	L4.1,21.2L4.1,21.2C4,21.2,4.1,21.2,4.1,21.2z M13,5.5l1.3-1.7h-1.1l-0.6,0.8l-0.7-1.4l9.4,0l1.1,2.2l-2.4,0l1.2-1.5h-1.1l-1.2,1.6
	l-1.2,0L19,3.9h-1.1l-1.3,1.6l-1.3,0l1.3-1.6h-1.1l-1.3,1.6L13,5.5L13,5.5z M7,8.9l4.4-5.3l1.8,3.7l-4.4,5.3L7,8.9z M22.7,6.1
	l0.4,0.7l-9.3,0.1l-0.4-0.7L22.7,6.1z"/>
<path d="M15.6,8.6l1.6,0l-1,1.3l-1.6,0L15.6,8.6z M17.4,9.9l1-1.3H20l-1,1.3L17.4,9.9z M18.2,11c-0.6,0.5-1.9,1-3.1,1
	c-1.2,0-1.6-0.5-1.4-1H18.2z"/>
</svg>
